<?xml version="1.0" standalone="no"?>
<!DOCTYPE svg PUBLIC "-//W3C//DTD SVG 20010904//EN"
 "http://www.w3.org/TR/2001/REC-SVG-20010904/DTD/svg10.dtd">
<svg version="1.0" xmlns="http://www.w3.org/2000/svg"
 width="512.000000pt" height="512.000000pt" viewBox="0 0 512.000000 512.000000"
 preserveAspectRatio="xMidYMid meet">

<g transform="translate(0.000000,512.000000) scale(0.100000,-0.100000)"
fill="#000000" stroke="none">
<path d="M167 4944 c-31 -10 -64 -30 -92 -59 -79 -79 -75 -9 -75 -1236 0 -749
3 -1104 11 -1139 14 -66 62 -127 124 -159 l49 -26 499 -3 c463 -3 498 -4 493
-20 -3 -9 -10 -37 -16 -62 -6 -25 -13 -52 -16 -61 -4 -13 -22 -17 -87 -21
-160 -9 -245 -90 -255 -245 -5 -84 8 -125 44 -142 18 -8 256 -11 840 -11 l816
0 29 29 c25 26 29 37 29 88 0 118 -49 211 -133 255 -29 14 -69 23 -126 27
l-85 6 -18 70 c-9 39 -18 73 -18 78 0 4 122 7 270 7 l270 0 0 -258 c0 -292 -5
-322 -67 -386 -65 -67 -78 -70 -288 -76 -157 -5 -196 -9 -225 -24 -88 -46
-131 -115 -138 -223 l-5 -71 -246 -4 c-199 -4 -257 -8 -301 -23 -99 -31 -173
-76 -241 -144 -108 -108 -162 -239 -162 -391 0 -152 54 -283 162 -391 106
-106 238 -161 386 -163 98 0 169 16 259 61 66 33 170 124 209 183 l17 24 17
-24 c9 -14 44 -53 78 -87 104 -103 237 -157 385 -156 153 0 284 55 391 162
108 108 162 239 162 391 0 250 -164 465 -408 538 -36 10 -120 16 -297 19
l-248 5 0 57 c0 47 4 61 23 79 22 20 33 22 163 22 77 0 167 5 199 11 147 27
267 134 312 277 12 37 15 103 13 320 l-1 272 119 0 c209 0 277 27 336 131 l31
54 0 1135 0 1136 -26 49 c-32 62 -93 110 -159 124 -36 8 -489 11 -1503 10
-1254 0 -1459 -2 -1500 -15z m3008 -169 l25 -24 0 -976 0 -975 -1520 0 -1520
0 0 975 0 976 25 24 24 25 1471 0 1471 0 24 -25z m-1532 -2147 c-49 -24 -50
-98 -1 -132 21 -15 -35 -16 -705 -16 l-728 0 -24 25 c-21 20 -25 34 -25 80 l0
55 753 -1 c534 0 746 -3 730 -11z m1557 -43 c0 -46 -4 -60 -25 -80 l-24 -25
-728 0 c-553 1 -723 3 -708 12 51 29 60 84 20 123 l-24 25 744 0 745 0 0 -55z
m-1166 -330 c9 -35 16 -71 16 -80 0 -13 -43 -15 -374 -15 l-374 0 20 80 20 80
338 0 338 0 16 -65z m341 -280 c14 -13 25 -31 25 -40 0 -13 -77 -15 -720 -15
-781 0 -744 -3 -699 54 l20 26 675 0 675 0 24 -25z m356 -892 c80 -40 159
-120 197 -200 24 -52 27 -70 27 -163 0 -93 -3 -111 -27 -163 -38 -80 -117
-160 -197 -200 -61 -30 -72 -32 -171 -32 -93 0 -111 3 -163 27 -79 37 -160
117 -199 195 -38 77 -58 93 -118 93 -59 0 -83 -18 -114 -85 -35 -77 -115 -158
-195 -198 -61 -30 -72 -32 -171 -32 -93 0 -111 3 -163 27 -80 38 -160 117
-200 197 -30 61 -32 72 -32 171 0 93 3 112 27 162 31 68 105 149 166 185 89
52 85 52 697 50 l570 -2 66 -32z"/>
<path d="M1564 948 c-29 -14 -44 -49 -44 -103 l0 -45 -45 0 c-58 0 -91 -16
-106 -53 -24 -57 26 -107 109 -107 l42 0 0 -49 c0 -64 31 -104 79 -104 48 0
73 31 79 96 l4 55 55 4 c65 6 96 31 96 79 0 48 -40 79 -102 79 l-49 0 -4 57
c-4 46 -10 61 -32 80 -29 25 -49 28 -82 11z"/>
<path d="M2517 940 c-49 -39 -31 -122 28 -131 73 -11 123 65 78 120 -27 32
-73 37 -106 11z"/>
<path d="M2357 780 c-49 -39 -31 -122 28 -131 73 -11 123 65 78 120 -27 32
-73 37 -106 11z"/>
<path d="M2677 780 c-49 -39 -31 -122 28 -131 73 -11 123 65 78 120 -27 32
-73 37 -106 11z"/>
<path d="M2517 620 c-49 -39 -31 -122 28 -131 73 -11 123 65 78 120 -27 32
-73 37 -106 11z"/>
<path d="M3687 4944 c-31 -10 -64 -31 -92 -59 -80 -80 -75 25 -75 -1525 0
-1549 -5 -1446 74 -1525 73 -72 49 -70 731 -70 l611 0 49 26 c62 32 110 93
124 159 15 72 15 2748 0 2820 -14 66 -62 127 -124 159 l-49 26 -601 2 c-509 2
-607 0 -648 -13z m1248 -169 c21 -20 25 -34 25 -80 l0 -55 -640 0 -640 0 0 55
c0 46 4 60 25 80 l24 25 591 0 591 0 24 -25z m25 -335 l0 -40 -640 0 -640 0 0
40 0 40 640 0 640 0 0 -40z m0 -1335 l0 -1136 -25 -24 -24 -25 -591 0 -591 0
-24 25 -25 24 0 1136 0 1135 640 0 640 0 0 -1135z"/>
<path d="M4260 3751 c-112 -36 -174 -119 -174 -231 0 -138 97 -235 234 -234
139 1 234 96 234 234 0 96 -44 169 -128 212 -43 22 -128 32 -166 19z m115
-176 c16 -15 25 -36 25 -55 0 -19 -9 -40 -25 -55 -51 -52 -135 -15 -135 59 0
68 86 101 135 51z"/>
<path d="M3963 2788 c-12 -6 -27 -23 -34 -39 -15 -37 2 -82 37 -98 17 -7 131
-11 354 -11 223 0 337 4 354 11 55 26 55 112 0 138 -33 15 -680 14 -711 -1z"/>
<path d="M3963 2548 c-12 -6 -27 -23 -34 -39 -15 -37 2 -82 37 -98 35 -15 673
-15 708 0 55 26 55 112 0 138 -33 15 -680 14 -711 -1z"/>
<path d="M3963 2308 c-12 -6 -27 -23 -34 -39 -15 -37 2 -82 37 -98 35 -15 673
-15 708 0 55 26 55 112 0 138 -33 15 -680 14 -711 -1z"/>
</g>
</svg>
