<?xml version="1.0" standalone="no"?>
<!DOCTYPE svg PUBLIC "-//W3C//DTD SVG 20010904//EN"
 "http://www.w3.org/TR/2001/REC-SVG-20010904/DTD/svg10.dtd">
<svg version="1.0" xmlns="http://www.w3.org/2000/svg"
 width="350.000000pt" height="350.000000pt" viewBox="0 0 350.000000 350.000000"
 preserveAspectRatio="xMidYMid meet">

<g transform="translate(0.000000,350.000000) scale(0.100000,-0.100000)"
fill="#000000" stroke="none">
<path d="M80 3105 l0 -315 315 0 315 0 0 315 0 315 -315 0 -315 0 0 -315z
m540 0 l0 -225 -225 0 -225 0 0 225 0 225 225 0 225 0 0 -225z"/>
<path d="M260 3105 l0 -135 135 0 135 0 0 135 0 135 -135 0 -135 0 0 -135z"/>
<path d="M800 3240 l0 -180 45 0 45 0 0 -45 0 -45 -45 0 -45 0 0 -90 0 -90 45
0 45 0 0 45 0 45 45 0 45 0 0 -135 0 -135 -90 0 -90 0 0 -45 0 -45 90 0 90 0
0 -45 0 -45 45 0 45 0 0 45 0 45 -45 0 -45 0 0 45 0 45 45 0 45 0 0 45 0 45
45 0 45 0 0 -45 0 -45 45 0 45 0 0 -45 0 -45 45 0 45 0 0 45 0 45 -45 0 -45 0
0 45 0 45 -45 0 -45 0 0 45 0 45 45 0 45 0 0 45 0 45 45 0 45 0 0 -90 0 -90
45 0 45 0 0 -180 0 -180 -90 0 -90 0 0 45 0 45 -45 0 -45 0 0 -45 0 -45 -90 0
-90 0 0 -45 0 -45 90 0 90 0 0 -45 0 -45 -135 0 -135 0 0 -45 0 -45 -45 0 -45
0 0 45 0 45 -90 0 -90 0 0 -45 0 -45 -135 0 -135 0 0 45 0 45 -90 0 -90 0 0
-45 0 -45 -45 0 -45 0 0 -45 0 -45 45 0 45 0 0 -45 0 -45 -45 0 -45 0 0 -135
0 -135 45 0 45 0 0 -45 0 -45 90 0 90 0 0 45 0 45 45 0 45 0 0 -90 0 -90 -45
0 -45 0 0 -90 0 -90 -45 0 -45 0 0 90 0 90 -90 0 -90 0 0 -90 0 -90 90 0 90 0
0 -45 0 -45 45 0 45 0 0 45 0 45 45 0 45 0 0 -45 0 -45 45 0 45 0 0 -135 0
-135 -45 0 -45 0 0 45 0 45 -45 0 -45 0 0 45 0 45 -45 0 -45 0 0 -90 0 -90
-90 0 -90 0 0 -45 0 -45 225 0 225 0 0 45 0 45 45 0 45 0 0 -45 0 -45 90 0 90
0 0 -45 0 -45 45 0 45 0 0 -45 0 -45 -45 0 -45 0 0 -90 0 -90 135 0 135 0 0
45 0 45 45 0 45 0 0 -45 0 -45 45 0 45 0 0 -45 0 -45 90 0 90 0 0 -45 0 -45
-45 0 -45 0 0 -45 0 -45 -45 0 -45 0 0 45 0 45 -45 0 -45 0 0 -45 0 -45 -45 0
-45 0 0 45 0 45 -45 0 -45 0 0 45 0 45 -45 0 -45 0 0 -45 0 -45 -45 0 -45 0 0
-90 0 -90 180 0 180 0 0 45 0 45 45 0 45 0 0 -45 0 -45 90 0 90 0 0 90 0 90
45 0 45 0 0 -90 0 -90 45 0 45 0 0 45 0 45 45 0 45 0 0 45 0 45 -90 0 -90 0 0
45 0 45 45 0 45 0 0 45 0 45 45 0 45 0 0 -45 0 -45 45 0 45 0 0 45 0 45 -45 0
-45 0 0 45 0 45 90 0 90 0 0 -135 0 -135 45 0 45 0 0 -90 0 -90 45 0 45 0 0
90 0 90 -45 0 -45 0 0 45 0 45 90 0 90 0 0 -135 0 -135 90 0 90 0 0 90 0 90
-45 0 -45 0 0 90 0 90 45 0 45 0 0 -45 0 -45 45 0 45 0 0 -90 0 -90 45 0 45 0
0 -45 0 -45 45 0 45 0 0 90 0 90 45 0 45 0 0 -90 0 -90 90 0 90 0 0 45 0 45
45 0 45 0 0 -45 0 -45 225 0 225 0 0 45 0 45 -45 0 -45 0 0 45 0 45 -45 0 -45
0 0 45 0 45 90 0 90 0 0 45 0 45 -90 0 -90 0 0 135 0 135 -45 0 -45 0 0 45 0
45 45 0 45 0 0 45 0 45 45 0 45 0 0 45 0 45 -45 0 -45 0 0 45 0 45 45 0 45 0
0 45 0 45 45 0 45 0 0 45 0 45 -45 0 -45 0 0 45 0 45 -90 0 -90 0 0 -225 0
-225 -270 0 -270 0 0 -225 0 -225 -135 0 -135 0 0 90 0 90 45 0 45 0 0 90 0
90 -45 0 -45 0 0 45 0 45 -45 0 -45 0 0 45 0 45 90 0 90 0 0 -45 0 -45 45 0
45 0 0 45 0 45 45 0 45 0 0 45 0 45 45 0 45 0 0 45 0 45 -45 0 -45 0 0 45 0
45 -45 0 -45 0 0 45 0 45 45 0 45 0 0 225 0 225 45 0 45 0 0 -45 0 -45 45 0
45 0 0 -45 0 -45 -45 0 -45 0 0 -45 0 -45 135 0 135 0 0 -90 0 -90 -90 0 -90
0 0 45 0 45 -45 0 -45 0 0 -45 0 -45 45 0 45 0 0 -90 0 -90 45 0 45 0 0 -45 0
-45 -45 0 -45 0 0 -45 0 -45 45 0 45 0 0 45 0 45 45 0 45 0 0 -45 0 -45 45 0
45 0 0 90 0 90 -45 0 -45 0 0 45 0 45 45 0 45 0 0 90 0 90 45 0 45 0 0 45 0
45 45 0 45 0 0 -45 0 -45 45 0 45 0 0 45 0 45 45 0 45 0 0 45 0 45 -45 0 -45
0 0 45 0 45 -90 0 -90 0 0 -90 0 -90 -90 0 -90 0 0 45 0 45 -45 0 -45 0 0 45
0 45 90 0 90 0 0 45 0 45 135 0 135 0 0 45 0 45 45 0 45 0 0 45 0 45 -45 0
-45 0 0 45 0 45 -135 0 -135 0 0 45 0 45 135 0 135 0 0 45 0 45 45 0 45 0 0
90 0 90 -45 0 -45 0 0 90 0 90 45 0 45 0 0 45 0 45 -180 0 -180 0 0 -45 0 -45
-45 0 -45 0 0 45 0 45 -45 0 -45 0 0 -90 0 -90 -45 0 -45 0 0 -90 0 -90 -90 0
-90 0 0 90 0 90 45 0 45 0 0 45 0 45 -180 0 -180 0 0 180 0 180 -45 0 -45 0 0
45 0 45 -45 0 -45 0 0 -45 0 -45 -45 0 -45 0 0 45 0 45 -45 0 -45 0 0 45 0 45
45 0 45 0 0 45 0 45 45 0 45 0 0 45 0 45 45 0 45 0 0 45 0 45 -90 0 -90 0 0
-45 0 -45 -135 0 -135 0 0 45 0 45 -180 0 -180 0 0 -45 0 -45 -45 0 -45 0 0
-45 0 -45 45 0 45 0 0 45 0 45 135 0 135 0 0 -45 0 -45 -45 0 -45 0 0 -45 0
-45 -45 0 -45 0 0 -45 0 -45 -45 0 -45 0 0 45 0 45 -90 0 -90 0 0 90 0 90 -90
0 -90 0 0 -45 0 -45 45 0 45 0 0 -135 0 -135 45 0 45 0 0 -45 0 -45 -45 0 -45
0 0 -45 0 -45 -45 0 -45 0 0 180 0 180 -45 0 -45 0 0 45 0 45 -45 0 -45 0 0
90 0 90 -45 0 -45 0 0 -180z m1170 -45 l0 -45 -45 0 -45 0 0 -45 0 -45 45 0
45 0 0 -90 0 -90 45 0 45 0 0 -45 0 -45 -45 0 -45 0 0 -45 0 -45 -90 0 -90 0
0 -45 0 -45 90 0 90 0 0 -45 0 -45 -45 0 -45 0 0 -45 0 -45 -45 0 -45 0 0 -90
0 -90 45 0 45 0 0 45 0 45 45 0 45 0 0 -90 0 -90 45 0 45 0 0 45 0 45 45 0 45
0 0 -90 0 -90 90 0 90 0 0 45 0 45 90 0 90 0 0 -45 0 -45 -45 0 -45 0 0 -45 0
-45 45 0 45 0 0 -45 0 -45 45 0 45 0 0 90 0 90 45 0 45 0 0 45 0 45 45 0 45 0
0 45 0 45 90 0 90 0 0 45 0 45 90 0 90 0 0 -45 0 -45 -90 0 -90 0 0 -45 0 -45
-45 0 -45 0 0 -90 0 -90 -45 0 -45 0 0 45 0 45 -45 0 -45 0 0 -90 0 -90 135 0
135 0 0 45 0 45 90 0 90 0 0 -45 0 -45 -90 0 -90 0 0 -45 0 -45 -45 0 -45 0 0
-45 0 -45 -45 0 -45 0 0 45 0 45 -45 0 -45 0 0 45 0 45 -45 0 -45 0 0 -45 0
-45 -45 0 -45 0 0 45 0 45 -45 0 -45 0 0 -135 0 -135 45 0 45 0 0 -45 0 -45
-90 0 -90 0 0 -45 0 -45 45 0 45 0 0 -180 0 -180 -90 0 -90 0 0 45 0 45 -45 0
-45 0 0 -135 0 -135 45 0 45 0 0 -45 0 -45 45 0 45 0 0 -45 0 -45 -45 0 -45 0
0 45 0 45 -45 0 -45 0 0 45 0 45 -45 0 -45 0 0 45 0 45 -45 0 -45 0 0 -90 0
-90 45 0 45 0 0 -45 0 -45 45 0 45 0 0 -45 0 -45 -180 0 -180 0 0 90 0 90 -45
0 -45 0 0 45 0 45 45 0 45 0 0 135 0 135 -45 0 -45 0 0 90 0 90 -45 0 -45 0 0
-45 0 -45 -45 0 -45 0 0 -45 0 -45 -90 0 -90 0 0 90 0 90 45 0 45 0 0 -45 0
-45 45 0 45 0 0 90 0 90 90 0 90 0 0 -45 0 -45 45 0 45 0 0 90 0 90 -90 0 -90
0 0 45 0 45 90 0 90 0 0 90 0 90 45 0 45 0 0 45 0 45 -45 0 -45 0 0 45 0 45
90 0 90 0 0 -45 0 -45 90 0 90 0 0 45 0 45 -45 0 -45 0 0 45 0 45 -45 0 -45 0
0 45 0 45 -45 0 -45 0 0 -45 0 -45 -180 0 -180 0 0 45 0 45 45 0 45 0 0 45 0
45 45 0 45 0 0 135 0 135 -45 0 -45 0 0 45 0 45 45 0 45 0 0 45 0 45 45 0 45
0 0 90 0 90 -45 0 -45 0 0 -45 0 -45 -45 0 -45 0 0 45 0 45 45 0 45 0 0 90 0
90 45 0 45 0 0 90 0 90 90 0 90 0 0 -45z m-630 -180 l0 -45 -45 0 -45 0 0 45
0 45 45 0 45 0 0 -45z m270 0 l0 -45 -45 0 -45 0 0 -90 0 -90 -45 0 -45 0 0
90 0 90 45 0 45 0 0 45 0 45 45 0 45 0 0 -45z m630 -135 l0 -90 -45 0 -45 0 0
90 0 90 45 0 45 0 0 -90z m0 -225 l0 -45 45 0 45 0 0 -45 0 -45 -45 0 -45 0 0
45 0 45 -45 0 -45 0 0 -90 0 -90 45 0 45 0 0 -45 0 -45 -45 0 -45 0 0 45 0 45
-45 0 -45 0 0 90 0 90 45 0 45 0 0 45 0 45 45 0 45 0 0 -45z m900 -90 l0 -45
45 0 45 0 0 -45 0 -45 45 0 45 0 0 -90 0 -90 -45 0 -45 0 0 90 0 90 -45 0 -45
0 0 45 0 45 -45 0 -45 0 0 -45 0 -45 -45 0 -45 0 0 45 0 45 45 0 45 0 0 45 0
45 45 0 45 0 0 -45z m-1530 -180 l0 -45 -45 0 -45 0 0 -45 0 -45 -45 0 -45 0
0 45 0 45 45 0 45 0 0 45 0 45 45 0 45 0 0 -45z m810 0 l0 -45 90 0 90 0 0
-45 0 -45 -135 0 -135 0 0 90 0 90 45 0 45 0 0 -45z m-1170 -90 l0 -45 45 0
45 0 0 -45 0 -45 -45 0 -45 0 0 45 0 45 -45 0 -45 0 0 45 0 45 45 0 45 0 0
-45z m-450 -270 l0 -45 45 0 45 0 0 45 0 45 45 0 45 0 0 -135 0 -135 45 0 45
0 0 90 0 90 45 0 45 0 0 45 0 45 45 0 45 0 0 -45 0 -45 -45 0 -45 0 0 -45 0
-45 45 0 45 0 0 -45 0 -45 90 0 90 0 0 -45 0 -45 45 0 45 0 0 -90 0 -90 -45 0
-45 0 0 -45 0 -45 -90 0 -90 0 0 45 0 45 -45 0 -45 0 0 -45 0 -45 -45 0 -45 0
0 -45 0 -45 -45 0 -45 0 0 45 0 45 -45 0 -45 0 0 -45 0 -45 -45 0 -45 0 0 135
0 135 -90 0 -90 0 0 -45 0 -45 45 0 45 0 0 -45 0 -45 -90 0 -90 0 0 135 0 135
90 0 90 0 0 45 0 45 -45 0 -45 0 0 45 0 45 -45 0 -45 0 0 -45 0 -45 -45 0 -45
0 0 -45 0 -45 -45 0 -45 0 0 -45 0 -45 -90 0 -90 0 0 90 0 90 135 0 135 0 0
90 0 90 90 0 90 0 0 45 0 45 90 0 90 0 0 -45z m630 -45 l0 -90 -45 0 -45 0 0
90 0 90 45 0 45 0 0 -90z m-1080 -45 l0 -45 -45 0 -45 0 0 45 0 45 45 0 45 0
0 -45z m1260 0 l0 -45 -45 0 -45 0 0 45 0 45 45 0 45 0 0 -45z m1710 0 l0 -45
-45 0 -45 0 0 45 0 45 45 0 45 0 0 -45z m-1620 -180 l0 -45 -45 0 -45 0 0 45
0 45 45 0 45 0 0 -45z m-990 -450 l0 -45 -45 0 -45 0 0 45 0 45 45 0 45 0 0
-45z m540 0 l0 -45 -45 0 -45 0 0 -45 0 -45 45 0 45 0 0 -45 0 -45 90 0 90 0
0 -45 0 -45 45 0 45 0 0 45 0 45 90 0 90 0 0 -45 0 -45 -90 0 -90 0 0 -45 0
-45 45 0 45 0 0 -45 0 -45 -90 0 -90 0 0 -45 0 -45 -90 0 -90 0 0 45 0 45 -45
0 -45 0 0 -45 0 -45 -135 0 -135 0 0 90 0 90 -135 0 -135 0 0 45 0 45 45 0 45
0 0 45 0 45 -45 0 -45 0 0 45 0 45 45 0 45 0 0 -45 0 -45 135 0 135 0 0 45 0
45 -45 0 -45 0 0 45 0 45 135 0 135 0 0 45 0 45 45 0 45 0 0 -45z m1710 -630
l0 -135 -135 0 -135 0 0 135 0 135 135 0 135 0 0 -135z m-1260 0 l0 -45 -45 0
-45 0 0 -90 0 -90 -135 0 -135 0 0 90 0 90 45 0 45 0 0 -45 0 -45 45 0 45 0 0
90 0 90 90 0 90 0 0 -45z m-630 -90 l0 -45 -90 0 -90 0 0 45 0 45 90 0 90 0 0
-45z m180 0 l0 -45 -45 0 -45 0 0 45 0 45 45 0 45 0 0 -45z m1890 -90 l0 -135
-45 0 -45 0 0 -45 0 -45 45 0 45 0 0 -45 0 -45 -90 0 -90 0 0 135 0 135 45 0
45 0 0 90 0 90 45 0 45 0 0 -135z m-1080 0 l0 -45 -45 0 -45 0 0 45 0 45 45 0
45 0 0 -45z m180 0 l0 -45 -45 0 -45 0 0 45 0 45 45 0 45 0 0 -45z m450 -90
l0 -45 -45 0 -45 0 0 45 0 45 45 0 45 0 0 -45z m180 -90 l0 -45 -45 0 -45 0 0
45 0 45 45 0 45 0 0 -45z m-1890 -90 l0 -45 -45 0 -45 0 0 45 0 45 45 0 45 0
0 -45z"/>
<path d="M1790 2925 l0 -45 45 0 45 0 0 -45 0 -45 45 0 45 0 0 45 0 45 -45 0
-45 0 0 45 0 45 -45 0 -45 0 0 -45z"/>
<path d="M1700 2205 l0 -45 45 0 45 0 0 45 0 45 -45 0 -45 0 0 -45z"/>
<path d="M2150 1845 l0 -45 -90 0 -90 0 0 -135 0 -135 -45 0 -45 0 0 45 0 45
-45 0 -45 0 0 -45 0 -45 45 0 45 0 0 -45 0 -45 45 0 45 0 0 -45 0 -45 -90 0
-90 0 0 -45 0 -45 45 0 45 0 0 -90 0 -90 90 0 90 0 0 90 0 90 45 0 45 0 0 45
0 45 90 0 90 0 0 45 0 45 -45 0 -45 0 0 45 0 45 45 0 45 0 0 135 0 135 -45 0
-45 0 0 45 0 45 -45 0 -45 0 0 -45z m0 -180 l0 -45 45 0 45 0 0 -45 0 -45 -45
0 -45 0 0 -90 0 -90 -45 0 -45 0 0 45 0 45 -45 0 -45 0 0 45 0 45 90 0 90 0 0
45 0 45 -45 0 -45 0 0 45 0 45 45 0 45 0 0 -45z"/>
<path d="M1790 855 l0 -45 45 0 45 0 0 -45 0 -45 45 0 45 0 0 45 0 45 -45 0
-45 0 0 45 0 45 -45 0 -45 0 0 -45z"/>
<path d="M620 1935 l0 -45 45 0 45 0 0 45 0 45 -45 0 -45 0 0 -45z"/>
<path d="M800 1845 l0 -45 45 0 45 0 0 -45 0 -45 -45 0 -45 0 0 -45 0 -45 45
0 45 0 0 -45 0 -45 45 0 45 0 0 45 0 45 45 0 45 0 0 -45 0 -45 45 0 45 0 0 45
0 45 45 0 45 0 0 -45 0 -45 90 0 90 0 0 90 0 90 -45 0 -45 0 0 -45 0 -45 -45
0 -45 0 0 45 0 45 -45 0 -45 0 0 -45 0 -45 -45 0 -45 0 0 45 0 45 -45 0 -45 0
0 45 0 45 -45 0 -45 0 0 45 0 45 -45 0 -45 0 0 -45z"/>
<path d="M980 945 l0 -135 90 0 90 0 0 45 0 45 45 0 45 0 0 -45 0 -45 90 0 90
0 0 90 0 90 -45 0 -45 0 0 -45 0 -45 -45 0 -45 0 0 45 0 45 -45 0 -45 0 0 -45
0 -45 -45 0 -45 0 0 90 0 90 -45 0 -45 0 0 -135z"/>
<path d="M2780 675 l0 -45 45 0 45 0 0 45 0 45 -45 0 -45 0 0 -45z"/>
<path d="M2330 3375 l0 -45 45 0 45 0 0 -90 0 -90 -45 0 -45 0 0 45 0 45 -45
0 -45 0 0 -45 0 -45 45 0 45 0 0 -45 0 -45 45 0 45 0 0 -45 0 -45 90 0 90 0 0
-135 0 -135 45 0 45 0 0 360 0 360 -90 0 -90 0 0 -45 0 -45 -45 0 -45 0 0 45
0 45 -45 0 -45 0 0 -45z m270 -90 l0 -45 -45 0 -45 0 0 45 0 45 45 0 45 0 0
-45z m-90 -180 l0 -45 -45 0 -45 0 0 45 0 45 45 0 45 0 0 -45z"/>
<path d="M2780 3105 l0 -315 315 0 315 0 0 315 0 315 -315 0 -315 0 0 -315z
m540 0 l0 -225 -225 0 -225 0 0 225 0 225 225 0 225 0 0 -225z"/>
<path d="M2960 3105 l0 -135 135 0 135 0 0 135 0 135 -135 0 -135 0 0 -135z"/>
<path d="M2420 2790 l0 -90 45 0 45 0 0 90 0 90 -45 0 -45 0 0 -90z"/>
<path d="M80 2610 l0 -90 45 0 45 0 0 -135 0 -135 90 0 90 0 0 45 0 45 45 0
45 0 0 45 0 45 -45 0 -45 0 0 45 0 45 45 0 45 0 0 45 0 45 45 0 45 0 0 -45 0
-45 45 0 45 0 0 -45 0 -45 45 0 45 0 0 45 0 45 -45 0 -45 0 0 45 0 45 45 0 45
0 0 45 0 45 -135 0 -135 0 0 -45 0 -45 -90 0 -90 0 0 45 0 45 -90 0 -90 0 0
-90z"/>
<path d="M620 2295 l0 -45 90 0 90 0 0 45 0 45 -90 0 -90 0 0 -45z"/>
<path d="M440 2205 l0 -45 45 0 45 0 0 45 0 45 -45 0 -45 0 0 -45z"/>
<path d="M80 1125 l0 -45 45 0 45 0 0 45 0 45 -45 0 -45 0 0 -45z"/>
<path d="M80 405 l0 -315 315 0 315 0 0 315 0 315 -315 0 -315 0 0 -315z m540
0 l0 -225 -225 0 -225 0 0 225 0 225 225 0 225 0 0 -225z"/>
<path d="M260 405 l0 -135 135 0 135 0 0 135 0 135 -135 0 -135 0 0 -135z"/>
<path d="M1790 135 l0 -45 45 0 45 0 0 45 0 45 -45 0 -45 0 0 -45z"/>
</g>
</svg>
