<?xml version="1.0" standalone="no"?>
<!DOCTYPE svg PUBLIC "-//W3C//DTD SVG 20010904//EN"
 "http://www.w3.org/TR/2001/REC-SVG-20010904/DTD/svg10.dtd">
<svg version="1.0" xmlns="http://www.w3.org/2000/svg"
 width="512.000000pt" height="512.000000pt" viewBox="0 0 512.000000 512.000000"
 preserveAspectRatio="xMidYMid meet">

<g transform="translate(0.000000,512.000000) scale(0.100000,-0.100000)"
fill="#000000" stroke="none">
<path d="M1504 5105 c-139 -30 -270 -129 -327 -248 -61 -125 -58 -3 -55 -2295
3 -2015 4 -2099 22 -2152 67 -198 197 -327 392 -387 55 -17 116 -18 1024 -18
908 0 969 1 1024 18 195 60 325 189 392 387 18 53 19 137 22 2152 3 2292 6
2170 -55 2295 -36 75 -131 170 -206 206 -118 57 -104 57 -1182 56 -786 0
-1003 -3 -1051 -14z m2133 -167 c106 -39 203 -168 203 -268 l0 -30 -1280 0
-1280 0 0 30 c0 98 97 228 200 268 55 21 64 21 1077 21 l1022 1 58 -22z m203
-2138 l0 -1680 -1280 0 -1280 0 0 1680 0 1680 1280 0 1280 0 0 -1680z m-1340
-1849 c-110 -34 -174 -119 -174 -231 0 -112 64 -197 174 -231 14 -4 -178 -8
-426 -8 -489 -1 -507 1 -601 56 -58 33 -126 112 -159 181 -21 45 -28 77 -32
150 l-5 92 624 -1 c343 0 613 -4 599 -8z m1340 -59 c0 -150 -67 -273 -190
-352 -92 -58 -110 -60 -604 -59 -248 0 -440 4 -426 8 110 34 174 119 174 231
0 112 -64 197 -174 231 -14 4 255 8 598 8 l622 1 0 -68z m-1225 -117 c50 -49
15 -135 -55 -135 -19 0 -40 9 -55 25 -16 15 -25 36 -25 55 0 19 9 40 25 55 15
16 36 25 55 25 19 0 40 -9 55 -25z m-1285 -330 c33 -35 175 -102 244 -114 84
-15 1891 -15 1972 0 71 13 184 64 238 108 22 17 41 29 44 26 3 -3 -11 -38 -31
-78 -44 -90 -103 -147 -195 -190 l-67 -32 -975 0 -975 0 -67 32 c-84 40 -147
97 -185 170 -52 98 -53 131 -3 78z"/>
<path d="M2275 4858 c-39 -34 -39 -82 0 -116 33 -28 79 -25 108 9 58 71 -38
167 -108 107z"/>
<path d="M2523 4868 c-32 -16 -48 -61 -34 -97 18 -43 48 -51 191 -51 75 0 140
5 154 11 55 26 55 112 0 138 -32 14 -281 14 -311 -1z"/>
<path d="M2120 3987 c-35 -18 -48 -61 -29 -95 28 -51 33 -52 482 -52 l418 0
24 -25 c16 -15 25 -36 25 -55 0 -19 -9 -40 -25 -55 -23 -24 -28 -25 -172 -25
-81 0 -164 -5 -184 -10 -82 -23 -152 -95 -171 -178 l-13 -52 -171 0 c-93 0
-197 -5 -230 -11 -250 -46 -426 -293 -385 -541 59 -360 464 -521 762 -303 26
20 61 54 77 75 l29 40 41 -49 c138 -164 374 -211 570 -115 233 114 331 395
218 629 -58 120 -141 195 -271 245 -54 21 -81 24 -267 28 -187 4 -208 6 -208
21 0 10 6 26 14 37 13 17 31 20 188 25 189 6 220 14 282 75 93 92 84 271 -16
347 -73 56 -85 57 -542 57 -318 0 -427 -3 -446 -13z m955 -728 c67 -25 141
-94 175 -164 36 -72 35 -198 0 -270 -111 -226 -423 -248 -557 -40 -56 88 -65
95 -130 95 -69 0 -95 -15 -120 -68 -24 -51 -89 -113 -148 -143 -41 -20 -65
-24 -135 -24 -73 0 -93 4 -142 28 -62 30 -115 83 -150 149 -19 36 -23 58 -23
138 0 79 4 102 23 137 44 83 108 140 191 169 27 10 147 13 498 14 444 0 464
-1 518 -21z"/>
<path d="M2123 3190 c-31 -12 -43 -41 -43 -99 l0 -51 -47 0 c-87 0 -130 -45
-104 -108 15 -36 48 -52 106 -52 l45 0 0 -45 c0 -58 16 -91 53 -106 57 -24
107 26 107 109 l0 42 49 0 c57 0 96 26 107 72 5 22 0 34 -24 58 -26 25 -38 30
-81 30 l-51 0 0 51 c0 43 -5 55 -29 80 -30 30 -50 34 -88 19z"/>
<path d="M2916 3179 c-20 -16 -26 -29 -26 -58 0 -48 28 -75 77 -75 68 0 98 80
48 129 -30 30 -64 32 -99 4z"/>
<path d="M2756 3019 c-20 -16 -26 -29 -26 -58 0 -48 28 -75 77 -75 68 0 98 80
48 129 -30 30 -64 32 -99 4z"/>
<path d="M3076 3019 c-20 -16 -26 -29 -26 -58 0 -48 28 -75 77 -75 68 0 98 80
48 129 -30 30 -64 32 -99 4z"/>
<path d="M2916 2859 c-20 -16 -26 -29 -26 -58 0 -48 28 -75 77 -75 68 0 98 80
48 129 -30 30 -64 32 -99 4z"/>
<path d="M1709 2211 c-16 -16 -29 -36 -29 -45 0 -29 23 -65 49 -75 18 -8 272
-11 842 -9 787 3 818 4 838 22 29 26 29 86 0 112 -20 18 -51 19 -846 22 l-824
2 -30 -29z"/>
<path d="M1723 1988 c-31 -15 -49 -62 -35 -93 27 -58 -16 -56 879 -53 791 3
822 4 842 22 29 26 29 86 0 112 -20 18 -50 19 -843 21 -563 1 -828 -2 -843 -9z"/>
<path d="M2120 1747 c-52 -26 -52 -105 0 -132 25 -13 92 -15 437 -15 437 0
444 1 472 51 19 33 1 81 -35 98 -37 17 -840 15 -874 -2z"/>
</g>
</svg>
